HIERARCHY
ROOT Hips
{
 OFFSET 0.000000 0.000000 0.000000
 CHANNELS 6 Xposition Yposition Zposition Yrotation Xrotation Zrotation
 JOINT Chest
 {
  OFFSET 0.000000 9.585900 0.002600
  CHANNELS 3 Yrotation Xrotation Zrotation
  JOINT Chest2
  {
   OFFSET 0.000000 9.601200 -0.005300
   CHANNELS 3 Yrotation Xrotation Zrotation
   JOINT Chest3
   {
    OFFSET 0.000000 9.561800 0.000000
    CHANNELS 3 Yrotation Xrotation Zrotation
    JOINT Chest4
    {
     OFFSET 0.000000 9.552100 0.000000
     CHANNELS 3 Yrotation Xrotation Zrotation
     JOINT Neck
     {
      OFFSET 0.000000 14.453000 0.000000
      CHANNELS 3 Yrotation Xrotation Zrotation
      JOINT Head
      {
       OFFSET 0.000000 8.936500 -0.011300
       CHANNELS 3 Yrotation Xrotation Zrotation
       End Site
       {
        OFFSET 0.000000 17.073600 -0.006000
       }
      }
     }
     JOINT RightCollar
     {
      OFFSET -2.921100 9.558500 0.000000
      CHANNELS 3 Yrotation Xrotation Zrotation
      JOINT RightShoulder
      {
       OFFSET -13.519700 0.000000 0.000000
       CHANNELS 3 Yrotation Xrotation Zrotation
       JOINT RightElbow
       {
        OFFSET 0.000000 -29.696600 0.000000
        CHANNELS 3 Yrotation Xrotation Zrotation
        JOINT RightWrist
        {
         OFFSET 0.000000 -24.004700 0.000000
         CHANNELS 3 Yrotation Xrotation Zrotation
         End Site
         {
          OFFSET 0.000000 -17.728500 0.000000
         }
        }
       }
      }
     }
     JOINT LeftCollar
     {
      OFFSET 2.921100 9.558500 0.000000
      CHANNELS 3 Yrotation Xrotation Zrotation
      JOINT LeftShoulder
      {
       OFFSET 13.519700 0.000000 0.000000
       CHANNELS 3 Yrotation Xrotation Zrotation
       JOINT LeftElbow
       {
        OFFSET 0.000000 -29.696600 0.000000
        CHANNELS 3 Yrotation Xrotation Zrotation
        JOINT LeftWrist
        {
         OFFSET 0.000000 -24.004700 0.000000
         CHANNELS 3 Yrotation Xrotation Zrotation
         End Site
         {
          OFFSET 0.000000 -17.728500 0.000000
         }
        }
       }
      }
     }
    }
   }
  }
 }
 JOINT RightHip
 {
  OFFSET -7.771700 -0.012900 -0.001300
  CHANNELS 3 Yrotation Xrotation Zrotation
  JOINT RightKnee
  {
   OFFSET 0.000000 -40.869800 0.001200
   CHANNELS 3 Yrotation Xrotation Zrotation
   JOINT RightAnkle
   {
    OFFSET 0.000000 -39.717900 0.002100
    CHANNELS 3 Yrotation Xrotation Zrotation
    JOINT RightToe
    {
     OFFSET 0.000000 -4.965400 11.033500
     CHANNELS 3 Yrotation Xrotation Zrotation
     End Site
     {
      OFFSET 0.000000 -1.423100 5.872300
     }
    }
   }
  }
 }
 JOINT LeftHip
 {
  OFFSET 7.771700 -0.012900 -0.001300
  CHANNELS 3 Yrotation Xrotation Zrotation
  JOINT LeftKnee
  {
   OFFSET 0.000000 -40.869800 0.001200
   CHANNELS 3 Yrotation Xrotation Zrotation
   JOINT LeftAnkle
   {
    OFFSET 0.000000 -39.717900 0.002100
    CHANNELS 3 Yrotation Xrotation Zrotation
    JOINT LeftToe
    {
     OFFSET 0.000000 -4.965400 11.033500
     CHANNELS 3 Yrotation Xrotation Zrotation
     End Site
     {
      OFFSET 0.000000 -1.423100 5.872300
     }
    }
   }
  }
 }
}
MOTION
Frames: 16
Frame Time: 0.008333
0.000000 85.388000 0.000000 0.000000 -5.767877 0.000000 0.000000 11.653817 0.000000 0.000000 -5.885947 0.000000 0.000000 -0.000000 0.000000 0.000000 -0.000000 0.000000 0.000000 12.528835 0.000000 0.000000 0.711642 0.000000 0.000000 -0.000000 0.000000 0.000000 0.000000 -90.000000 0.000000 -2.309062 0.000000 0.000000 2.309062 0.000000 0.000000 -0.000000 0.000000 0.000000 -0.000000 90.000000 0.000000 -2.309062 0.000000 0.000000 2.309062 0.000000 0.000000 8.520406 0.000000 0.000000 1.905762 0.000000 -0.000000 -4.658285 0.000000 0.000000 -0.000000 0.000000 0.000000 8.520406 0.000000 0.000000 1.905762 0.000000 -0.000000 -4.658285 0.000000 0.000000 -0.000000 0.000000
-9.557775 55.859888 19.039288 -175.469356 -30.729606 -11.133226 -0.910853 13.843423 7.312086 -0.741234 8.138049 2.075336 -0.878519 10.174282 2.583407 -0.741132 8.138405 2.075469 1.977824 19.872386 -1.668290 2.514056 -4.652118 -2.220407 5.435490 -2.602092 -2.422745 -1.875995 -21.052878 1.959151 58.427491 -35.084178 -41.813972 9.765289 9.805173 -17.120252 -11.132626 -2.600634 -5.068153 -9.919115 -21.744568 1.912363 -53.119365 -27.866126 46.682083 0.108432 -1.972504 6.081952 -20.166235 -28.129625 6.844117 64.033331 86.702913 62.447431 3.723332 -27.351417 -3.766428 -1.629549 3.445208 -0.743341 -11.558195 -44.793199 11.421847 176.938633 73.611882 175.083430 -1.637458 -25.326190 1.638513 -0.249342 -1.249333 -0.114266
-9.556801 55.860194 19.040478 -175.471952 -30.727177 -11.139046 -0.913013 13.846060 7.319316 -0.738670 8.136094 2.074537 -0.885978 10.178299 2.584651 -0.755542 8.149706 2.084462 2.004395 19.854036 -1.675061 2.533705 -4.662148 -2.220895 5.456262 -2.617989 -2.438151 -1.880135 -21.048258 1.963433 58.434519 -35.094993 -41.820281 9.754482 9.798579 -17.119455 -11.118378 -2.605127 -5.072099 -9.904550 -21.755036 1.906986 -53.128917 -27.870274 46.689067 0.113273 -1.970240 6.083420 -20.167565 -28.126955 6.853222 63.982102 86.695161 62.394056 3.730247 -27.356379 -3.770896 -1.640287 3.454144 -0.742831 -11.567654 -44.795638 11.433962 176.937783 73.610896 175.082146 -1.634362 -25.323157 1.635656 -0.250311 -1.249546 -0.114141
-9.556745 55.860692 19.041189 -175.471684 -30.728219 -11.140879 -0.918021 13.850174 7.320335 -0.746573 8.142914 2.079111 -0.883746 10.178491 2.582746 -0.754187 8.147606 2.084833 2.024082 19.846203 -1.664352 2.548370 -4.673548 -2.229024 5.464091 -2.622426 -2.439697 -1.888210 -21.045199 1.964907 58.443452 -35.105923 -41.823711 9.763768 9.802105 -17.119957 -11.121572 -2.598211 -5.072742 -9.890656 -21.764879 1.905925 -53.166019 -27.881855 46.697632 0.139990 -1.945336 6.086876 -20.167721 -28.125071 6.858688 63.943189 86.696281 62.352217 3.726353 -27.354485 -3.769309 -1.637278 3.452967 -0.740412 -11.573100 -44.794840 11.436124 176.938837 73.610642 175.081638 -1.627218 -25.318296 1.631832 -0.251393 -1.251273 -0.113941
-9.557569 55.861125 19.041735 -175.470717 -30.730366 -11.137356 -0.925064 13.854824 7.314495 -0.742553 8.142112 2.080350 -0.891282 10.183599 2.588377 -0.748734 8.143782 2.079003 2.031341 19.843429 -1.660904 2.571218 -4.689536 -2.227931 5.464720 -2.624027 -2.440031 -1.895820 -21.042976 1.971354 58.445658 -35.114007 -41.830632 9.777085 9.802351 -17.112852 -11.131499 -2.585862 -5.070802 -9.878875 -21.761319 1.907259 -53.180592 -27.906403 46.718797 0.138538 -1.932680 6.081382 -20.161722 -28.127027 6.856031 63.927857 86.703618 62.338762 3.719186 -27.347693 -3.766645 -1.626714 3.444243 -0.736777 -11.570631 -44.792769 11.427902 176.941887 73.612630 175.084057 -1.622047 -25.316605 1.630194 -0.253040 -1.249168 -0.113692
-9.558576 55.861646 19.041978 -175.468107 -30.733959 -11.133001 -0.932368 13.860580 7.307803 -0.745939 8.144639 2.080864 -0.892990 10.186461 2.592350 -0.749979 8.146051 2.082104 2.047616 19.831124 -1.660420 2.589597 -4.703003 -2.232637 5.473172 -2.631819 -2.449245 -1.897210 -21.041871 1.971962 58.437458 -35.122398 -41.832379 9.786861 9.796204 -17.106304 -11.134113 -2.581638 -5.075903 -9.865759 -21.771106 1.905534 -53.208585 -27.921108 46.722694 0.145207 -1.909808 6.093307 -20.159399 -28.126804 6.848929 63.929103 86.708424 62.341141 3.717118 -27.343102 -3.766474 -1.622148 3.435772 -0.734572 -11.566553 -44.788454 11.420252 176.950064 73.614996 175.090019 -1.626051 -25.316324 1.634623 -0.250067 -1.247484 -0.114263
-9.559711 55.862182 19.041963 -175.467831 -30.738772 -11.125834 -0.934942 13.865848 7.300307 -0.752317 8.148006 2.083973 -0.900860 10.194622 2.599147 -0.747734 8.142079 2.078515 2.065788 19.819111 -1.660572 2.606427 -4.715281 -2.237212 5.484783 -2.638649 -2.457439 -1.899089 -21.041205 1.970662 58.429658 -35.129072 -41.834404 9.794299 9.788250 -17.101869 -11.135661 -2.577572 -5.081005 -9.860626 -21.761434 1.906290 -53.235018 -27.946468 46.758998 0.150396 -1.886791 6.091518 -20.152975 -28.127347 6.840174 63.944803 86.716026 62.359092 3.711001 -27.337972 -3.765126 -1.613530 3.426749 -0.732054 -11.557537 -44.783834 11.410656 176.974904 73.617924 175.111850 -1.628092 -25.314500 1.641641 -0.248118 -1.246609 -0.115350
-9.560076 55.862807 19.041885 -175.466143 -30.742490 -11.123126 -0.937022 13.871446 7.298777 -0.753803 8.149751 2.085348 -0.907846 10.197897 2.598106 -0.755452 8.151812 2.085567 2.088953 19.799356 -1.665577 2.620821 -4.728013 -2.237481 5.501513 -2.653853 -2.466557 -1.898308 -21.044105 1.977264 58.429030 -35.119415 -41.839451 9.778385 9.774881 -17.098853 -11.132103 -2.582810 -5.086714 -9.852781 -21.766118 1.906708 -53.247912 -27.961349 46.772222 0.145788 -1.874835 6.086006 -20.148111 -28.124794 6.835749 63.917344 86.720002 62.333787 3.707551 -27.338170 -3.765569 -1.608595 3.423642 -0.729289 -11.553933 -44.780344 11.412703 176.965879 73.618206 175.096557 -1.642191 -25.309537 1.652282 -0.248214 -1.246801 -0.114608
-9.559558 55.863424 19.041940 -175.465829 -30.743947 -11.123920 -0.948512 13.880349 7.297282 -0.750877 8.148061 2.085006 -0.907364 10.201096 2.599742 -0.756978 8.153585 2.086383 2.104457 19.786934 -1.664389 2.625928 -4.731924 -2.239869 5.511520 -2.663564 -2.468098 -1.902672 -21.042310 1.979918 58.424231 -35.123464 -41.842668 9.789601 9.770729 -17.090354 -11.132628 -2.580713 -5.087346 -9.843765 -21.775959 1.905558 -53.254697 -27.968940 46.776457 0.148599 -1.860874 6.080601 -20.145908 -28.120368 6.836363 63.863295 86.718856 62.280289 3.708464 -27.344924 -3.766371 -1.609150 3.428832 -0.730295 -11.556604 -44.777631 11.420399 176.974707 73.618649 175.100559 -1.648513 -25.308401 1.657177 -0.246646 -1.245444 -0.113467
-9.563828 55.865026 19.038897 -175.441762 -30.761050 -11.108137 -0.976238 13.904173 7.269609 -0.758591 8.155065 2.087201 -0.903400 10.197692 2.598567 -0.755520 8.151642 2.083249 2.127222 19.776917 -1.644625 2.620196 -4.733016 -2.252389 5.513876 -2.671289 -2.466016 -1.905671 -21.039477 1.983822 58.419341 -35.130251 -41.838479 9.794379 9.768046 -17.083018 -11.134620 -2.576406 -5.084816 -9.830430 -21.777049 1.900185 -53.275594 -27.982921 46.784101 0.161678 -1.839278 6.080710 -20.140836 -28.111015 6.799243 63.862901 86.719593 62.282307 3.668986 -27.331063 -3.768411 -1.573977 3.411361 -0.711619 -11.541766 -44.760150 11.373634 176.961482 73.624065 175.082130 -1.651300 -25.299564 1.662942 -0.247212 -1.248878 -0.113376
-9.563460 55.866099 19.038085 -175.439750 -30.765191 -11.107004 -0.981198 13.910855 7.271013 -0.760006 8.156433 2.088041 -0.902672 10.197298 2.595581 -0.758020 8.152926 2.082768 2.142929 19.771981 -1.636110 2.660170 -4.754217 -2.244749 5.512006 -2.680415 -2.462777 -1.902562 -21.037529 1.987537 58.396557 -35.145561 -41.827180 9.812486 9.767476 -17.080380 -11.132800 -2.572729 -5.081998 -9.825887 -21.776312 1.899753 -53.282989 -28.012301 46.789072 0.162592 -1.815092 6.079267 -20.134115 -28.106267 6.796350 63.826059 86.721472 62.249288 3.666205 -27.332279 -3.778878 -1.570602 3.410659 -0.700543 -11.536729 -44.755609 11.367974 176.960913 73.624673 175.083776 -1.651396 -25.295716 1.664850 -0.246778 -1.250478 -0.114653
-9.563016 55.867079 19.037483 -175.442546 -30.767543 -11.102627 -0.983912 13.914713 7.271363 -0.761598 8.157744 2.089246 -0.899434 10.196938 2.592869 -0.768064 8.161761 2.098880 2.157725 19.762129 -1.646974 2.675536 -4.758939 -2.247753 5.517852 -2.695151 -2.478877 -1.897604 -21.035285 1.988829 58.392253 -35.149498 -41.829760 9.812731 9.773282 -17.076757 -11.124328 -2.578451 -5.095426 -9.817959 -21.775288 1.895167 -53.290562 -28.027891 46.797223 0.169764 -1.801990 6.075963 -20.128633 -28.105243 6.793250 63.820400 86.723587 62.244970 3.666806 -27.331137 -3.782781 -1.569784 3.408198 -0.698549 -11.529756 -44.751303 11.366822 176.969871 73.627270 175.090432 -1.654112 -25.297726 1.667606 -0.244422 -1.246971 -0.113559
-9.563543 55.868064 19.036645 -175.437048 -30.769409 -11.095748 -0.994969 13.919355 7.262970 -0.764465 8.159377 2.091378 -0.909766 10.202461 2.602339 -0.763660 8.158861 2.090295 2.172490 19.759118 -1.646596 2.691252 -4.761788 -2.250810 5.524352 -2.704499 -2.486128 -1.893480 -21.031166 1.986880 58.383600 -35.161403 -41.831270 9.804254 9.757955 -17.074346 -11.120105 -2.576845 -5.098471 -9.802697 -21.775878 1.886127 -53.303701 -28.044009 46.802937 0.174708 -1.785613 6.075644 -20.126458 -28.105982 6.783650 63.848853 86.727696 62.272852 3.664205 -27.330159 -3.784048 -1.563010 3.402721 -0.698757 -11.523697 -44.750876 11.354508 176.929591 73.627530 175.047671 -1.660302 -25.286989 1.669861 -0.247606 -1.253781 -0.113867
-9.562218 55.869467 19.035720 -175.439459 -30.773350 -11.095561 -0.993448 13.923717 7.264318 -0.770113 8.162008 2.095136 -0.910012 10.202626 2.600750 -0.768745 8.160956 2.092644 2.184267 19.755723 -1.650467 2.708602 -4.761967 -2.248927 5.533183 -2.712337 -2.493636 -1.897724 -21.034413 1.997435 58.384896 -35.155608 -41.828515 9.806941 9.754926 -17.071355 -11.110966 -2.576019 -5.099653 -9.786079 -21.780905 1.875203 -53.320427 -28.060780 46.802127 0.178064 -1.765869 6.078431 -20.114495 -28.098678 6.790191 63.818444 86.720506 62.236627 3.655154 -27.337770 -3.773425 -1.573695 3.409871 -0.701914 -11.515591 -44.743285 11.359612 176.941710 73.630146 175.058093 -1.666784 -25.292974 1.676795 -0.245282 -1.248386 -0.113437
-9.561718 55.870508 19.035180 -175.439077 -30.774210 -11.091700 -0.998295 13.927073 7.263521 -0.772866 8.162418 2.094545 -0.906861 10.201391 2.597047 -0.779348 8.164094 2.098462 2.197242 19.753930 -1.655282 2.723801 -4.761988 -2.247966 5.545103 -2.716480 -2.502385 -1.916299 -21.042488 2.023229 58.398162 -35.140558 -41.826082 9.809745 9.754150 -17.069496 -11.095220 -2.573964 -5.102099 -9.782099 -21.778683 1.865942 -53.331449 -28.076345 46.809990 0.181916 -1.751805 6.081578 -20.107259 -28.099371 6.789176 63.830891 86.721456 62.248669 3.647607 -27.335588 -3.771059 -1.570093 3.405516 -0.700970 -11.507619 -44.741183 11.354899 176.945793 73.632787 175.062307 -1.669950 -25.293061 1.680191 -0.242972 -1.246954 -0.113091
-9.561654 55.871166 19.035140 -175.436854 -30.771638 -11.086781 -1.009006 13.927748 7.261348 -0.768995 8.161128 2.090228 -0.916463 10.205146 2.602158 -0.781541 8.162104 2.096069 2.213096 19.755783 -1.648360 2.737707 -4.764166 -2.259952 5.540500 -2.724369 -2.503388 -1.902443 -21.039483 2.025787 58.377457 -35.158472 -41.810339 9.810190 9.749445 -17.082084 -11.080555 -2.573370 -5.107402 -9.783802 -21.780610 1.862435 -53.333357 -28.081231 46.811282 0.185793 -1.745168 6.084761 -20.104342 -28.104215 6.785859 63.851023 86.723364 62.268617 3.643749 -27.332970 -3.771183 -1.567305 3.401517 -0.699710 -11.503310 -44.745294 11.350614 176.941466 73.633744 175.054327 -1.672206 -25.284419 1.688729 -0.244979 -1.251210 -0.116010
